<?xml version="1.0" ?><svg data-name="Layer 2" id="Layer_2" viewBox="0 0 2010 2010" xmlns="http://www.w3.org/2000/svg" xmlns:xlink="http://www.w3.org/1999/xlink"><defs><style>.cls-1{fill:url(#linear-gradient);}.cls-2{fill:url(#linear-gradient-2);}.cls-3{fill:url(#linear-gradient-3);}.cls-4{fill:url(#linear-gradient-4);}.cls-5{fill:url(#linear-gradient-5);}.cls-6{fill:url(#linear-gradient-6);}.cls-7{fill:url(#linear-gradient-7);}</style><linearGradient gradientUnits="userSpaceOnUse" id="linear-gradient" x1="122.48" x2="1746.73" y1="1573.07" y2="-537.9"><stop offset="0.06" stop-color="#ff6800"/><stop offset="1" stop-color="#fff100"/></linearGradient><linearGradient id="linear-gradient-2" x1="-87.73" x2="1536.53" xlink:href="#linear-gradient" y1="1411.33" y2="-699.64"/><linearGradient id="linear-gradient-3" x1="21.87" x2="1646.13" xlink:href="#linear-gradient" y1="1495.66" y2="-615.31"/><linearGradient id="linear-gradient-4" x1="894.56" x2="2518.82" xlink:href="#linear-gradient" y1="2167.14" y2="56.17"/><linearGradient id="linear-gradient-5" x1="529.36" x2="2153.61" xlink:href="#linear-gradient" y1="1886.13" y2="-224.83"/><linearGradient id="linear-gradient-6" x1="464.44" x2="1778.71" xlink:href="#linear-gradient" y1="1637.75" y2="245.16"/><linearGradient gradientUnits="userSpaceOnUse" id="linear-gradient-7" x1="803.54" x2="1206.46" y1="1499.86" y2="1499.86"><stop offset="0" stop-color="#69bbff"/><stop offset="1" stop-color="#1798ff"/></linearGradient></defs><path class="cls-1" d="M1005,591.37a75,75,0,0,1-75-75V335.82a75,75,0,1,1,150,0V516.37A75,75,0,0,1,1005,591.37Z"/><path class="cls-2" d="M577.62,768.39a74.79,74.79,0,0,1-53-22L396.92,618.76A75,75,0,0,1,503,512.69L630.66,640.36a75,75,0,0,1-53,128Z"/><path class="cls-3" d="M400.6,1195.77H220.05a75,75,0,1,1,0-150H400.6a75,75,0,0,1,0,150Z"/><path class="cls-4" d="M1790,1195.77H1609.4a75,75,0,0,1,0-150H1790a75,75,0,1,1,0,150Z"/><path class="cls-5" d="M1432.38,768.39a75,75,0,0,1-53-128L1507,512.69a75,75,0,1,1,106.07,106.07L1485.41,746.43A74.77,74.77,0,0,1,1432.38,768.39Z"/><path class="cls-6" d="M1364.87,1211.48a75,75,0,0,0,75-75,434.87,434.87,0,1,0-869.74,0,75,75,0,0,0,75,75Z"/><path class="cls-7" d="M1184.5,1494.68a75,75,0,0,0-104.5-1.49V1325.55a75,75,0,0,0-150,0v167.64a75,75,0,0,0-104.5,107.56L952,1727.21a75,75,0,0,0,106.06,0l126.47-126.46A75,75,0,0,0,1184.5,1494.68Z"/></svg>